<svg width="50" height="50" viewBox="0 0 50 50" fill="none" xmlns="http://www.w3.org/2000/svg">
    <path d="M25 50C11.2 50 0 38.8 0 25C0 11.2 11.2 0 25 0C38.8 0 50 11.2 50 25C50 38.8 38.8 50 25 50Z" fill="black"/>
    <path d="M20.9148 33.1333H15.543L21.5802 14.7999H28.3812L34.4184 33.1333H29.0466L25.03 19.8515H24.8821L20.9148 33.1333ZM23.2065 19.0383H26.9274L29.9829 29.6342H19.8799L23.2065 19.0383Z" fill="white"/>
    <path d="M30.75 18.25L29.1419 20.3283C27.4692 22.4903 27.4691 25.5097 29.1419 27.6717L30.75 29.75L28.6717 28.1419C26.5097 26.4691 23.4903 26.4691 21.3283 28.1419L19.25 29.75L20.8581 27.6717C22.5309 25.5097 22.5308 22.4903 20.8581 20.3283L19.25 18.25L21.3283 19.8581C23.4903 21.5308 26.5097 21.5308 28.6717 19.8581L30.75 18.25Z" fill="black"/>
</svg>
