<svg width="50" height="50" viewBox="0 0 50 50" fill="none" xmlns="http://www.w3.org/2000/svg">
    <path d="M25 50C11.2 50 0 38.8 0 25C0 11.2 11.2 0 25 0C38.8 0 50 11.2 50 25C50 38.8 38.8 50 25 50Z" fill="black"/>
    <mask id="path-2-outside-1_848_2407" maskUnits="userSpaceOnUse" x="17" y="18" width="16" height="14" fill="black">
        <rect fill="white" x="17" y="18" width="16" height="14"/>
        <path fill-rule="evenodd" clip-rule="evenodd" d="M19 31H22.5161L23 29.3801V29.5H27.3851L27.8387 31H31.3548L27.4032 19H22.9516L19 31ZM26.4779 26.5L25.2097 22.3065H25.1129L23.8603 26.5H26.4779Z"/>
    </mask>
    <path d="M22.5161 31V32H23.2611L23.4743 31.2862L22.5161 31ZM19 31L18.0502 30.6872L17.6179 32H19V31ZM23 29.3801H24L22.0418 29.0939L23 29.3801ZM23 29.5H22V30.5H23V29.5ZM27.3851 29.5L28.3423 29.2105L28.1274 28.5H27.3851V29.5ZM27.8387 31L26.8815 31.2895L27.0964 32H27.8387V31ZM31.3548 31V32H32.737L32.3047 30.6872L31.3548 31ZM27.4032 19L28.3531 18.6872L28.1267 18H27.4032V19ZM22.9516 19V18H22.2281L22.0018 18.6872L22.9516 19ZM26.4779 26.5V27.5H27.825L27.435 26.2105L26.4779 26.5ZM25.2097 22.3065L26.1669 22.017L25.952 21.3065H25.2097V22.3065ZM25.1129 22.3065V21.3065H24.3679L24.1547 22.0202L25.1129 22.3065ZM23.8603 26.5L22.9021 26.2138L22.5179 27.5H23.8603V26.5ZM22.5161 30H19V32H22.5161V30ZM22.0418 29.0939L21.558 30.7138L23.4743 31.2862L23.9582 29.6663L22.0418 29.0939ZM24 29.5V29.3801H22V29.5H24ZM27.3851 28.5H23V30.5H27.3851V28.5ZM28.7959 30.7105L28.3423 29.2105L26.4279 29.7895L26.8815 31.2895L28.7959 30.7105ZM31.3548 30H27.8387V32H31.3548V30ZM26.4534 19.3128L30.405 31.3128L32.3047 30.6872L28.3531 18.6872L26.4534 19.3128ZM22.9516 20H27.4032V18H22.9516V20ZM19.9498 31.3128L23.9014 19.3128L22.0018 18.6872L18.0502 30.6872L19.9498 31.3128ZM27.435 26.2105L26.1669 22.017L24.2525 22.5959L25.5207 26.7895L27.435 26.2105ZM25.2097 21.3065H25.1129V23.3065H25.2097V21.3065ZM24.1547 22.0202L22.9021 26.2138L24.8185 26.7862L26.0711 22.5927L24.1547 22.0202ZM23.8603 27.5H26.4779V25.5H23.8603V27.5Z" fill="white" mask="url(#path-2-outside-1_848_2407)"/>
</svg>
