<svg width="50" height="50" viewBox="0 0 50 50" fill="none" xmlns="http://www.w3.org/2000/svg">
    <path d="M25 50C11.2 50 0 38.8 0 25C0 11.2 11.2 0 25 0C38.8 0 50 11.2 50 25C50 38.8 38.8 50 25 50Z" fill="black"/>
    <circle cx="21.75" cy="25.25" r="0.75" fill="white"/>
    <circle cx="24.75" cy="25.25" r="0.75" fill="white"/>
    <circle cx="27.75" cy="25.25" r="0.75" fill="white"/>
    <path d="M28.5 19C32.788 19 29.4529 25 32.5236 25H33" stroke="white"/>
    <path d="M20.5 31C16.212 31 19.5471 25 16.4764 25L16 25" stroke="white"/>
    <path d="M28.5 31C32.788 31 29.4529 25 32.5236 25H33" stroke="white"/>
    <path d="M20.5 19C16.212 19 19.5471 25 16.4764 25L16 25" stroke="white"/>
</svg>
