<svg width="50" height="50" viewBox="0 0 50 50" fill="none" xmlns="http://www.w3.org/2000/svg">
    <path d="M25 50C11.2 50 0 38.8 0 25C0 11.2 11.2 0 25 0C38.8 0 50 11.2 50 25C50 38.8 38.8 50 25 50Z" fill="black"/>
    <path d="M34 34.5C29.1437 29.3664 25 29.3664 25 34.5C25 29.3664 20.8563 29.3664 16 34.5C20.8563 29.3664 20.8563 24.7071 16 24.3443C20.8563 24.7071 20.8563 20.6336 16 15.5C20.8563 20.6336 25 20.6336 25 15.5C25 20.6336 29.1437 20.6336 34 15.5C29.1437 20.6336 29.1437 24.8466 34 24.6792C29.1437 24.8466 29.1437 29.3664 34 34.5Z" fill="white"/>
    <path d="M9 25.0674V23.8539C9.525 23.8539 9.875 23.7461 10.075 23.5303C10.275 23.3146 10.375 22.964 10.375 22.5056V21.7506C10.375 21.0494 10.475 20.5371 10.675 20.1596C10.875 19.782 11.15 19.5124 11.475 19.3506C11.825 19.1888 12.2 19.0809 12.625 19.0539C13.05 19.027 13.5 19 13.95 19V20.9146C13.6 20.9146 13.325 20.9685 13.15 21.0494C12.975 21.1303 12.875 21.2652 12.825 21.4539C12.775 21.6427 12.75 21.8584 12.75 22.1281V23.1798C12.75 23.4225 12.7 23.6652 12.6 23.8809C12.5 24.0966 12.325 24.3124 12.05 24.5011C11.775 24.6899 11.4 24.8247 10.9 24.9326C10.425 25.0135 9.8 25.0674 9 25.0674ZM9 26.1461V23.8539H10.95V26.1461H9ZM13.975 31C13.525 31 13.075 30.973 12.65 30.9461C12.225 30.9191 11.825 30.8112 11.5 30.6494C11.15 30.4876 10.9 30.218 10.7 29.8405C10.5 29.4629 10.4 28.9236 10.4 28.2494V27.4944C10.4 27.036 10.3 26.6854 10.1 26.4697C9.9 26.2539 9.54999 26.1461 9.02499 26.1461V24.9326C9.82499 24.9326 10.45 24.9865 10.95 25.0944C11.45 25.2022 11.825 25.3371 12.1 25.5258C12.375 25.7146 12.55 25.9034 12.65 26.1461C12.75 26.3618 12.8 26.6045 12.8 26.8472V27.8989C12.8 28.1685 12.825 28.3843 12.875 28.573C12.925 28.7618 13.05 28.8697 13.2 28.9775C13.375 29.0584 13.625 29.1124 14 29.1124V31H13.975Z" fill="white"/>
    <path d="M35.5275 19C36.0225 19 36.5175 19.0269 36.985 19.0538C37.4525 19.0807 37.865 19.1883 38.25 19.3498C38.635 19.5112 38.91 19.7803 39.13 20.1569C39.35 20.5336 39.46 21.0717 39.46 21.7444V22.4978C39.46 22.9552 39.57 23.3049 39.79 23.5202C40.01 23.7354 40.4225 23.8431 40.9725 23.8431V25.0538C40.0925 25.0538 39.405 25 38.855 24.8924C38.305 24.7848 37.8925 24.6502 37.59 24.4619C37.2875 24.2735 37.095 24.0852 36.985 23.8431C36.875 23.6278 36.82 23.3857 36.82 23.1435V22.0942C36.82 21.8251 36.7925 21.6099 36.7375 21.4215C36.6825 21.2332 36.545 21.1256 36.38 21.0179C36.1875 20.9372 35.9125 20.8834 35.5 20.8834V19H35.5275ZM41 24.9462V26.1569C40.4225 26.1569 40.0375 26.2646 39.8175 26.4798C39.5975 26.6951 39.4875 27.0448 39.4875 27.5022V28.2556C39.4875 28.9552 39.3775 29.4664 39.1575 29.8431C38.9375 30.2197 38.635 30.4888 38.2775 30.6502C37.8925 30.8117 37.48 30.9193 37.0125 30.9462C36.545 30.9731 36.05 31 35.555 31V29.0897C35.94 29.0897 36.2425 29.0359 36.435 28.9552C36.6275 28.8744 36.7375 28.7399 36.7925 28.5516C36.8475 28.3632 36.875 28.148 36.875 27.8789V26.8296C36.875 26.5874 36.93 26.3453 37.04 26.13C37.15 25.9148 37.3425 25.6996 37.645 25.5112C37.9475 25.3229 38.36 25.1883 38.91 25.0807C39.4325 25 40.1475 24.9462 41 24.9462ZM41 23.87V26.1569H38.855V23.87H41Z" fill="white"/>
</svg>
