<svg width="58" height="53" viewBox="0 0 58 53" fill="none" xmlns="http://www.w3.org/2000/svg">
    <path fill-rule="evenodd" clip-rule="evenodd" d="M58 23.395C58 36.3156 45.0163 46.7899 29 46.7899C12.9837 46.7899 0 36.3156 0 23.395C0 10.4743 12.9837 0 29 0C45.0163 0 58 10.4743 58 23.395ZM22.0942 24.0968C22.0942 25.7603 20.7457 27.1089 19.0821 27.1089C17.4186 27.1089 16.07 25.7603 16.07 24.0968C16.07 22.4333 17.4186 21.0847 19.0821 21.0847C20.7457 21.0847 22.0942 22.4333 22.0942 24.0968ZM32.1326 24.0968C32.1326 25.7603 30.784 27.1089 29.1205 27.1089C27.457 27.1089 26.1084 25.7603 26.1084 24.0968C26.1084 22.4333 27.457 21.0847 29.1205 21.0847C30.784 21.0847 32.1326 22.4333 32.1326 24.0968ZM39.1589 27.1089C40.8224 27.1089 42.171 25.7603 42.171 24.0968C42.171 22.4333 40.8224 21.0847 39.1589 21.0847C37.4953 21.0847 36.1468 22.4333 36.1468 24.0968C36.1468 25.7603 37.4953 27.1089 39.1589 27.1089ZM10.3213 52.3267C11.9849 52.3267 13.3334 50.9781 13.3334 49.3146C13.3334 47.6511 11.9849 46.3025 10.3213 46.3025C8.6578 46.3025 7.30924 47.6511 7.30924 49.3146C7.30924 50.9781 8.6578 52.3267 10.3213 52.3267Z" fill="#A9ADFB"/>
</svg>
