<svg width="50" height="50" viewBox="0 0 50 50" fill="none" xmlns="http://www.w3.org/2000/svg">
    <path d="M25 50C11.2 50 0 38.8 0 25C0 11.2 11.2 0 25 0C38.8 0 50 11.2 50 25C50 38.8 38.8 50 25 50Z" fill="black"/>
    <path d="M19.5991 25C22.3824 24.5693 24.5693 22.3824 25 19.5991C25.4307 22.3824 27.6176 24.5693 30.4009 25C27.6176 25.4307 25.4307 27.6176 25 30.4009C24.5693 27.6176 22.3824 25.4307 19.5991 25Z" stroke="white"/>
    <path d="M27.325 33.2142L27.5365 33.6602L27.9852 33.4545L28.9584 33.0082L29.4193 32.7969L29.2015 32.339L28.2557 30.35H30H31.4689L30.305 29.4538L25.305 25.6038L24.5 24.9839V26V32.3V33.8327L25.4038 32.5948L26.3904 31.2435L27.325 33.2142Z" fill="black" stroke="white"/>
</svg>
