<svg width="50" height="50" viewBox="0 0 50 50" fill="none" xmlns="http://www.w3.org/2000/svg">
    <path d="M25 50C11.2 50 0 38.8 0 25C0 11.2 11.2 0 25 0C38.8 0 50 11.2 50 25C50 38.8 38.8 50 25 50Z" fill="black"/>
    <path d="M40 24.5L35.0729 25.1076C30.1408 25.7158 26.2445 29.5701 25.5963 34.4819L25 39L24.4037 34.4819C23.7555 29.5701 19.8592 25.7158 14.9271 25.1076L10 24.5L14.9271 23.8924C19.8592 23.2842 23.7555 19.4299 24.4037 14.5181L25 10L25.5963 14.5181C26.2445 19.4299 30.1408 23.2842 35.0729 23.8924L40 24.5Z" fill="white"/>
    <path d="M28.9496 40.3674L29.5834 41.7312L30.9456 41.0938L32.9326 40.1641L34.2891 39.5294L33.6565 38.1719L32.0254 34.6719C34.3514 34.6155 35.3512 31.6597 33.5022 30.2069L27.1852 25.2435C25.5449 23.9547 23.1406 25.1232 23.1406 27.2093V35.1608C23.1406 37.4304 25.8588 38.4534 27.3709 36.9704L28.9496 40.3674Z" fill="white" stroke="black" stroke-width="3"/>
</svg>
