<svg width="50" height="50" viewBox="0 0 50 50" fill="none" xmlns="http://www.w3.org/2000/svg">
    <path d="M25 50C11.2 50 0 38.8 0 25C0 11.2 11.2 0 25 0C38.8 0 50 11.2 50 25C50 38.8 38.8 50 25 50Z" fill="black"/>
    <path d="M35.7432 23.2003C35.9885 23.3969 36.1868 23.5664 36.3335 23.6977C36.1815 23.8792 35.9655 24.1258 35.6917 24.4168C35.0974 25.0485 34.2365 25.8837 33.174 26.7155C31.0368 28.3887 28.1457 30 25 30C21.8543 30 18.9632 28.3887 16.826 26.7155C15.7635 25.8837 14.9026 25.0485 14.3083 24.4168C14.0345 24.1258 13.8185 23.8792 13.6665 23.6977C13.8132 23.5664 14.0115 23.3969 14.2568 23.2003C14.8489 22.7258 15.7086 22.0987 16.7711 21.4742C18.9027 20.2212 21.8134 19 25 19C28.1866 19 31.0973 20.2212 33.2289 21.4742C34.2914 22.0987 35.1511 22.7258 35.7432 23.2003Z" stroke="white"/>
    <circle cx="22.5" cy="23.5" r="2.5" stroke="white"/>
</svg>
