<svg width="50" height="50" viewBox="0 0 50 50" fill="none" xmlns="http://www.w3.org/2000/svg">
    <path d="M25 50C11.2 50 0 38.8 0 25C0 11.2 11.2 0 25 0C38.8 0 50 11.2 50 25C50 38.8 38.8 50 25 50Z" fill="black"/>
    <path d="M40 24.011C40 24.1138 33.2741 32 25 32C16.7259 32 10 24.1138 10 24.011C10 23.9083 16.7259 18 25 18C33.2741 18 40 23.9083 40 24.011Z" fill="white"/>
    <path d="M31.5075 13C25.6862 23.0634 24.3238 23.0634 18.5025 13C24.3238 23.0634 23.6426 24.2401 12 24.2401C23.6426 24.2401 24.3238 25.4167 18.5025 35.4801C24.3238 25.4167 25.6862 25.4167 31.5075 35.4801C25.6862 25.4167 26.3675 24.2401 38.01 24.2401C26.3675 24.271 25.6862 23.0944 31.5075 13Z" fill="black"/>
</svg>
