<svg width="50" height="50" viewBox="0 0 50 50" fill="none" xmlns="http://www.w3.org/2000/svg">
    <path d="M25 50C11.2 50 0 38.8 0 25C0 11.2 11.2 0 25 0C38.8 0 50 11.2 50 25C50 38.8 38.8 50 25 50Z" fill="black"/>
    <path d="M6.55294 37.5033C17.7235 32.6821 21.9588 31.7285 22.9118 41C25.1353 30.8278 30.1118 32.3113 34.2941 36.7616C32.4412 31.3576 34.2941 29.1325 40.1176 28.7616C32.5471 26.1656 33.9765 22.0331 42.5 18.3775C33.2353 18.9603 32.3883 15.8344 33.4471 9C29.9 14.351 27.5176 19.3841 24.9235 14.245C25.0294 20.2848 21.9588 18.4305 16.0824 12.8676C19.7353 20.6556 21.4824 21.2384 6.5 18.5364C21.1118 23.8874 25.7177 25 6.55294 37.5033Z" fill="white"/>
    <path d="M32.0017 25.1555C32.0017 24.5799 31.954 24.1599 31.8509 23.7244H25.1445V26.3221H29.081C29.0017 26.9677 28.5731 27.9399 27.6207 28.5932L27.6074 28.6802L29.7278 30.29L29.8747 30.3044C31.2239 29.0832 32.0017 27.2866 32.0017 25.1555Z" fill="black"/>
    <path d="M25.1427 31.9999C27.0712 31.9999 28.6902 31.3776 29.8728 30.3043L27.6188 28.5931C27.0157 29.0054 26.2061 29.2932 25.1427 29.2932C23.2538 29.2932 21.6506 28.0721 21.0792 26.3843L20.9954 26.3912L18.7906 28.0635L18.7617 28.142C19.9363 30.4287 22.349 31.9999 25.1427 31.9999Z" fill="black"/>
    <path d="M21.0793 26.3845C20.9285 25.9489 20.8413 25.4822 20.8413 25C20.8413 24.5178 20.9285 24.0511 21.0714 23.6156L21.0674 23.5228L18.8349 21.8237L18.7619 21.8578C18.2778 22.8067 18 23.8723 18 25C18 26.1278 18.2778 27.1933 18.7619 28.1422L21.0793 26.3845Z" fill="black"/>
    <path d="M25.1427 20.7066C26.4839 20.7066 27.3887 21.2744 27.9046 21.7489L29.9205 19.82C28.6824 18.6922 27.0712 18 25.1427 18C22.349 18 19.9363 19.5711 18.7617 21.8577L21.0712 23.6155C21.6507 21.9278 23.2538 20.7066 25.1427 20.7066Z" fill="black"/>
</svg>
