<svg width="48" height="48" viewBox="0 0 48 48" fill="none" xmlns="http://www.w3.org/2000/svg">
    <path fill-rule="evenodd" clip-rule="evenodd" d="M47.9982 23.9982C47.9982 23.9982 48.2829 12.9702 41.6562 6.34369C35.0298 -0.282731 24.0018 0.00177927 24.0018 0.00177927C24.0018 0.00177927 24.0002 0.0585795 24 0.166446C24 0.120891 23.9996 0.084446 23.9993 0.0575349C23.9989 0.0207349 23.9982 0.00177927 23.9982 0.00177927C23.9982 0.00177927 12.9702 -0.282731 6.34369 6.34369C-0.282731 12.9702 0.00177927 23.9982 0.00177927 23.9982C0.00177927 23.9982 11.0299 24.2827 17.6562 17.6562C23.7131 11.5996 23.9962 1.86558 24 0.236535C24.004 1.86558 24.2871 11.5996 30.3438 17.6562C36.9702 24.2827 47.9982 23.9982 47.9982 23.9982ZM6.34369 41.6562C-0.282731 35.0298 0.00177927 24.0018 0.00177927 24.0018C0.00177927 24.0018 11.0299 23.7173 17.6562 30.3438C23.7131 36.4004 23.9962 46.1344 24 47.7636C24.004 46.1344 24.2871 36.4004 30.3438 30.3438C36.9702 23.7173 47.9982 24.0018 47.9982 24.0018C47.9982 24.0018 48.2829 35.0298 41.6562 41.6562C35.0298 48.2827 24.0018 47.9982 24.0018 47.9982C24.0018 47.9982 24.0002 47.9413 24 47.8336C23.9998 47.9413 23.9982 47.9982 23.9982 47.9982C23.9982 47.9982 12.9702 48.2827 6.34369 41.6562Z" fill="#FCC6FA"/>
</svg>
