<svg width="49" height="49" viewBox="0 0 49 49" fill="none" xmlns="http://www.w3.org/2000/svg">
    <path fill-rule="evenodd" clip-rule="evenodd" d="M42.5241 6.47585C36.054 0.00578336 25.4732 -0.0101014 24.5645 0.000771457C24.5427 0.000258112 24.5209 0 24.499 0C24.4774 0 24.4558 0.000253005 24.4342 0.000756222C23.5169 -0.0100851 12.943 0.00880903 6.47585 6.47585C0.00732348 12.9445 -0.0100935 23.5217 0.000763698 24.4349C0.000255511 24.4565 0 24.4782 0 24.5C0 24.5218 0.000255592 24.5435 0.000763938 24.5651C-0.0100937 25.4781 0.00727578 36.0555 6.47585 42.5241C12.9451 48.9932 23.5236 49.0101 24.4351 48.9992C24.4564 48.9997 24.4777 49 24.499 49C24.5206 49 24.5422 48.9997 24.5636 48.9992C25.4665 49.0101 36.0519 48.9962 42.5241 42.5241C49.2884 35.7599 48.9982 24.503 48.9982 24.5018C48.9982 24.5018 48.9982 24.5018 48.9981 24.5018V24.5018C48.9981 24.5018 48.9981 24.5018 48.9981 24.5018V24.5V24.4982C48.9981 24.4982 48.9981 24.4982 48.9981 24.4982V24.4982C48.9982 24.4982 48.9982 24.4982 48.9982 24.4982C48.9982 24.4969 49.2884 13.2401 42.5241 6.47585ZM24.499 43.5555C24.7732 43.5555 25.032 43.3813 25.0837 43.112C25.8047 39.3562 27.4101 34.5418 30.9759 30.9759C34.5414 27.4105 39.3551 25.805 43.1107 25.0839C43.3796 25.0323 43.5536 24.7738 43.5536 24.5V24.5V24.5C43.5536 24.2262 43.3796 23.9677 43.1107 23.9161C39.3551 23.195 34.5414 21.5895 30.9759 18.0241C27.4101 14.4582 25.8046 9.64372 25.0836 5.88792C25.032 5.61869 24.7732 5.44444 24.499 5.44444V5.44444V5.44444C24.226 5.44444 23.9683 5.6181 23.9168 5.88627C23.196 9.64232 21.5906 14.4577 18.0241 18.0241C14.458 21.5902 9.64305 23.1956 5.88712 23.9165C5.6184 23.9681 5.44444 24.2264 5.44444 24.5V24.5V24.5C5.44444 24.7736 5.61841 25.0319 5.88714 25.0835C9.64307 25.8044 14.458 27.4098 18.0241 30.9759C21.5905 34.5423 23.196 39.3576 23.9168 43.1137C23.9683 43.3819 24.226 43.5555 24.499 43.5555V43.5555V43.5555Z" fill="#FCC6FA"/>
</svg>
