<svg width="50" height="50" viewBox="0 0 50 50" fill="none" xmlns="http://www.w3.org/2000/svg">
    <path d="M25 50C11.2 50 0 38.8 0 25C0 11.2 11.2 0 25 0C38.8 0 50 11.2 50 25C50 38.8 38.8 50 25 50Z" fill="black"/>
    <path d="M24.5 15C22.0635 15 21.7652 15 20.7956 15.0497C19.8508 15.0994 19.1796 15.2486 18.6077 15.4724C18.011 15.6961 17.5138 16.0193 17.0166 16.5166C16.5193 17.0138 16.221 17.511 15.9724 18.1077C15.7486 18.6796 15.5995 19.326 15.5497 20.2956C15.5 21.2652 15.5 21.5635 15.5 24C15.5 26.4365 15.5 26.7348 15.5497 27.7044C15.5995 28.6492 15.7486 29.3204 15.9724 29.8923C16.1961 30.489 16.5193 30.9862 17.0166 31.4834C17.5138 31.9807 18.011 32.279 18.6077 32.5276C19.1796 32.7514 19.826 32.9006 20.7956 32.9503C21.7652 33 22.0635 33 24.5 33C26.9365 33 27.2348 33 28.2044 32.9503C29.1492 32.9006 29.8204 32.7514 30.3923 32.5276C30.989 32.3039 31.4862 31.9807 31.9834 31.4834C32.4807 30.9862 32.779 30.489 33.0276 29.8923C33.2514 29.3204 33.4006 28.674 33.4503 27.7044C33.5 26.7348 33.5 26.4365 33.5 24C33.5 21.5635 33.5 21.2652 33.4503 20.2956C33.4006 19.3508 33.2514 18.6796 33.0276 18.1077C32.8039 17.511 32.4807 17.0138 31.9834 16.5166C31.4862 16.0193 30.989 15.721 30.3923 15.4724C29.8204 15.2486 29.174 15.0994 28.2044 15.0497C27.2597 15 26.9365 15 24.5 15Z" fill="white"/>
    <path d="M29.2995 18.1077C28.7029 18.1077 28.2305 18.5801 28.2305 19.1768C28.2305 19.7734 28.7029 20.2458 29.2995 20.2458C29.8962 20.2458 30.3686 19.7734 30.3686 19.1768C30.3686 18.5801 29.8962 18.1077 29.2995 18.1077Z" fill="black"/>
    <path d="M33 24L30.2901 24.3352C27.5774 24.6708 25.4344 26.7973 25.0779 29.5072L24.75 32L24.4221 29.5072C24.0655 26.7973 21.9226 24.6708 19.2099 24.3352L16.5 24L19.2099 23.6648C21.9226 23.3292 24.0655 21.2027 24.4221 18.4928L24.75 16L25.0779 18.4928C25.4344 21.2027 27.5774 23.3292 30.2901 23.6648L33 24Z" fill="black"/>
</svg>
