<svg width="50" height="50" viewBox="0 0 50 50" fill="none" xmlns="http://www.w3.org/2000/svg">
    <path d="M25 50C11.2 50 0 38.8 0 25C0 11.2 11.2 0 25 0C38.8 0 50 11.2 50 25C50 38.8 38.8 50 25 50Z" fill="black"/>
    <path d="M21.259 30.2214C21.5812 30.3469 21.9572 30.4368 22.556 30.4675C23.1873 30.4999 23.3732 30.5 25 30.5C26.6268 30.5 26.8126 30.4999 27.4439 30.4675C28.0309 30.4366 28.4239 30.3455 28.746 30.2195L28.7526 30.2169L28.7526 30.2169C29.0788 30.0946 29.3506 29.9202 29.6354 29.6354C29.9108 29.36 30.0762 29.0884 30.2214 28.741C30.3469 28.4188 30.4368 28.0428 30.4675 27.444C30.4999 26.8127 30.5 26.6268 30.5 25C30.5 23.3732 30.4999 23.1874 30.4675 22.5561C30.4675 22.556 30.4675 22.556 30.4675 22.556M21.259 30.2214L30.6851 21.0718C30.8342 21.453 30.9337 21.9006 30.9668 22.5304L30.4675 22.556M21.259 30.2214C20.9116 30.0762 20.64 29.9108 20.3646 29.6354C20.0798 29.3506 19.9054 29.0788 19.7831 28.7526L19.7831 28.7526L19.7805 28.746C19.6545 28.4239 19.5634 28.0307 19.5325 27.4437C19.5001 26.8126 19.5 26.6265 19.5 25C19.5 23.3732 19.5001 23.1873 19.5325 22.556C19.5632 21.9572 19.6531 21.5812 19.7786 21.2591C19.9238 20.9117 20.0892 20.64 20.3646 20.3646C20.6494 20.0798 20.9212 19.9054 21.2474 19.7831L21.2474 19.7831L21.254 19.7805C21.5761 19.6545 21.9692 19.5634 22.5563 19.5325C23.1874 19.5001 23.3734 19.5 25 19.5C26.6273 19.5 26.8291 19.5001 27.4433 19.5325L27.444 19.5325C28.0428 19.5632 28.4188 19.6531 28.7409 19.7786M21.259 30.2214L28.7409 19.7786M30.4675 22.556C30.4366 21.9691 30.3455 21.5761 30.2195 21.254L30.2169 21.2474L30.2169 21.2474C30.0946 20.9212 29.9202 20.6494 29.6354 20.3646C29.36 20.0892 29.0883 19.9238 28.7409 19.7786M30.4675 22.556L28.7409 19.7786" stroke="white"/>
    <path d="M28.25 21C27.8314 21 27.5 21.3314 27.5 21.75C27.5 22.1686 27.8314 22.5 28.25 22.5C28.6686 22.5 29 22.1686 29 21.75C29 21.3314 28.6686 21 28.25 21Z" fill="white"/>
    <path d="M23 25C23 23.8808 23.8808 23 25 23C26.1192 23 27 23.8808 27 25C27 26.1192 26.1192 27 25 27C23.8808 27 23 26.1192 23 25Z" stroke="white"/>
</svg>
