<svg width="50" height="50" viewBox="0 0 50 50" fill="none" xmlns="http://www.w3.org/2000/svg">
    <path d="M25 50C11.2 50 0 38.8 0 25C0 11.2 11.2 0 25 0C38.8 0 50 11.2 50 25C50 38.8 38.8 50 25 50Z" fill="black"/>
    <path d="M49.0117 29.8996C35.9378 24.3716 31.6651 21.5914 38.1272 13.5424C28.3154 19.6514 25.3327 14.3469 25.3331 7.3819C22.6469 13.1537 19.3628 13.3522 14.2237 8.79359C18.4956 17.1287 14.0715 19.1724 4.11378 14.9362C12.2839 22.1943 10.543 25.3457 4.31301 29.8125C11.4539 28.5784 17.3763 26.6233 15.5146 32.8049C20.1529 27.9902 21.2585 31.998 21.798 41.2443C24.8512 32.108 23.8526 30.1973 34.2129 44.7866C26.2342 28.4329 23.2699 23.7272 49.0117 29.8996Z" fill="white"/>
    <path d="M16.5578 24.3587L14.5173 24.929L15.1092 15.0536L17.5631 14.3678L23.1851 22.5064L21.1445 23.0767L16.9465 16.759L16.8762 16.7786L16.5578 24.3587ZM15.4408 20.8542L20.2606 19.5071L20.6761 20.9935L15.8562 22.3407L15.4408 20.8542Z" fill="black"/>
    <path d="M26.0005 25.2309L29.1562 14L33.653 15.2635C34.4792 15.4957 35.1339 15.8118 35.6172 16.2118C36.1004 16.6119 36.4198 17.0685 36.5754 17.5816C36.732 18.0911 36.7312 18.6273 36.573 19.1903C36.4498 19.629 36.2537 19.9901 35.9847 20.2735C35.7168 20.5532 35.3995 20.7559 35.0328 20.8817C34.6708 21.0048 34.2819 21.0553 33.866 21.0331L33.8352 21.1428C34.2578 21.2812 34.6242 21.5144 34.9345 21.8422C35.2484 22.171 35.4658 22.5693 35.5868 23.0372C35.7088 23.5014 35.6922 24.0096 35.5371 24.5616C35.3697 25.1575 35.0722 25.6479 34.6445 26.0326C34.2216 26.4147 33.6851 26.6604 33.0352 26.7697C32.3852 26.8789 31.6397 26.8154 30.7989 26.5792L26.0005 25.2309ZM28.9205 23.9568L30.8563 24.5007C31.518 24.6867 32.036 24.6961 32.4104 24.5291C32.7857 24.3585 33.033 24.0611 33.1521 23.637C33.2394 23.3263 33.2415 23.031 33.1584 22.7513C33.0753 22.4715 32.9138 22.225 32.674 22.0117C32.4378 21.7994 32.1296 21.6398 31.7494 21.5329L29.7587 20.9736L28.9205 23.9568ZM30.2102 19.3668L31.9705 19.8615C32.2959 19.9529 32.6006 19.9774 32.8847 19.9349C33.1735 19.8898 33.4208 19.7818 33.6266 19.6109C33.8361 19.441 33.9825 19.2079 34.0657 18.9118C34.1797 18.506 34.1272 18.1382 33.9083 17.8085C33.6929 17.4797 33.3221 17.2414 32.7956 17.0935L30.9914 16.5865L30.2102 19.3668Z" fill="black"/>
    <path d="M27.9108 30.3397L25.8446 29.7871C25.8783 29.5097 25.8647 29.2516 25.8039 29.0129C25.7439 28.7711 25.6424 28.5519 25.4995 28.3553C25.3567 28.1587 25.1762 27.9891 24.9582 27.8466C24.7434 27.7049 24.4976 27.597 24.2208 27.523C23.7207 27.3893 23.2519 27.397 22.8144 27.5462C22.3776 27.6923 21.994 27.9739 21.6634 28.391C21.3337 28.8049 21.0792 29.3468 20.9001 30.0167C20.7159 30.7055 20.6633 31.3115 20.7425 31.8348C20.8247 32.3589 21.0194 32.7901 21.3266 33.1284C21.6338 33.4666 22.0312 33.701 22.5186 33.8313C22.7923 33.9045 23.0551 33.936 23.3072 33.9259C23.5624 33.9167 23.7997 33.8672 24.0192 33.7776C24.2394 33.6849 24.4362 33.5539 24.6096 33.3845C24.786 33.2161 24.9324 33.0092 25.0485 32.7639L27.1123 33.3259C26.9402 33.7551 26.6922 34.147 26.3681 34.5019C26.0481 34.8544 25.6655 35.1446 25.2203 35.3727C24.7791 35.5985 24.2864 35.7397 23.7422 35.7963C23.2019 35.8507 22.622 35.795 22.0024 35.6293C21.1407 35.3989 20.4223 34.9978 19.8473 34.4262C19.2754 33.8553 18.8917 33.1478 18.6962 32.3036C18.5039 31.4602 18.5482 30.5133 18.8291 29.4629C19.1108 28.4093 19.5487 27.5659 20.1426 26.9328C20.7365 26.2997 21.4249 25.8806 22.2076 25.6754C22.9913 25.4671 23.8076 25.4765 24.6568 25.7036C25.2166 25.8533 25.7145 26.0707 26.1505 26.3558C26.5897 26.6417 26.9544 26.9852 27.2448 27.3864C27.536 27.7844 27.74 28.2316 27.8566 28.7278C27.9764 29.2249 27.9945 29.7622 27.9108 30.3397Z" fill="black"/>
</svg>
