<svg width="184" height="100" viewBox="0 0 184 100" fill="none" xmlns="http://www.w3.org/2000/svg">
    <circle cx="50" cy="50" r="50" fill="white"/>
    <circle cx="50" cy="33" r="15" fill="black"/>
    <circle cx="50" cy="67" r="15" fill="black"/>
    <circle cx="67" cy="51" r="15" fill="black"/>
    <circle cx="33" cy="51" r="15" fill="black"/>
    <circle cx="134" cy="50" r="50" fill="#4353FF"/>
    <path d="M147.039 44.235L142.659 58.1558C142.659 57.0896 139.637 34 139.637 34C132.689 34 129.003 38.9652 127.069 44.235L121.722 58.1862C121.722 57.181 120.967 44.3568 120.967 44.3568C120.709 41.5807 119.45 38.9963 117.429 37.0931C115.408 35.19 112.765 34.1003 110 34.0305L115.68 69C122.931 69 126.858 64.0348 128.882 58.765L133.414 46.8851C133.414 47.3725 136.435 69 136.435 69C139.4 68.9962 142.287 68.0405 144.677 66.2714C147.067 64.5024 148.836 62.0119 149.728 59.161L160 34C152.749 34 148.943 38.9652 147.009 44.235H147.039Z" fill="white"/>
</svg>
