<svg width="147" height="24" viewBox="0 0 147 24" fill="none" xmlns="http://www.w3.org/2000/svg">
    <path fill-rule="evenodd" clip-rule="evenodd" d="M6.435 5.4H14.955V0H6.435H1.215H0V24H1.215H6.435H14.955V18.6H6.435V5.4ZM24.1834 0H30.5584V24H24.1834V0ZM132.254 0H138.854H146.054V5.4H138.854V24H132.254V5.4H125.474V0H132.254ZM92.9535 0H90.5535H86.9535L79.1535 24H86.3535L87.6735 19.2H95.8335L97.1535 24H104.354L96.5535 0H92.9535ZM88.9935 14.4L91.4685 5.4H92.0385L94.5135 14.4H88.9935ZM119.805 5.31H123.66C125.505 5.31 126.99 6.81 127.005 8.655C127.005 10.5 125.505 12 123.66 12H119.805V5.4H113.805V12H119.805V17.4H113.805V24H107.205V17.4V12V5.4V0H113.805H119.805V5.31ZM51.2045 15H50.3495V9.6H41.3495V5.4H53.2895V0H41.3495V4.11H37.4945C35.6495 4.11 34.1495 5.61 34.1495 7.455C34.1495 9.3 35.6495 10.8 37.4945 10.8H37.7495V15H47.3495V18.6H34.7495V24H47.3495V21.69H51.2045C53.0495 21.69 54.5495 20.19 54.5495 18.345C54.5495 16.5 53.0495 15 51.2045 15ZM69.8568 12V15H72.8568L77.6568 24H70.4568L66.9318 17.4H63.8568V24H57.2568V17.4V12V5.4V0H63.8568H69.8568V5.31H73.7118C75.5568 5.31 77.0568 6.81 77.0568 8.655C77.0568 10.5 75.5568 12 73.7118 12H69.8568ZM63.8568 12H69.8568V5.4H63.8568V12ZM14.9715 5.39999H15.7665C19.0065 5.39999 21.6315 8.02499 21.6315 11.28V12.735C21.6315 15.975 19.0065 18.6 15.7665 18.6H14.9715V5.39999Z" fill="white"/>
</svg>
