<svg width="220" height="36" viewBox="0 0 220 36" fill="none" xmlns="http://www.w3.org/2000/svg">
    <path fill-rule="evenodd" clip-rule="evenodd"
          d="M9.6525 8.1H22.4325V0H9.6525H1.8225H0V36H1.8225H9.6525H22.4325V27.9H9.6525V8.1ZM36.2732 0H45.8357V36H36.2732V0ZM198.382 0H208.283H219.083V8.1H208.283V36H198.382V8.1H188.212V0H198.382ZM139.432 0H135.832H130.432L118.732 36H129.532L131.512 28.8H143.752L145.732 36H156.532L144.832 0H139.432ZM133.492 21.6L137.204 8.1H138.059L141.772 21.6H133.492ZM179.707 7.965H185.489C188.257 7.965 190.484 10.215 190.507 12.9825C190.507 15.75 188.257 18 185.489 18H179.707V8.1H170.707V18H179.707V26.1H170.707V36H160.807V26.1V18V8.1V0H170.707H179.707V7.965ZM76.8102 22.5H75.5277V14.4H62.0277V8.1H79.9377V0H62.0277V6.165H56.2452C53.4777 6.165 51.2277 8.415 51.2277 11.1825C51.2277 13.95 53.4777 16.2 56.2452 16.2H56.6277V22.5H71.0277V27.9H52.1277V36H71.0277V32.535H76.8102C79.5777 32.535 81.8277 30.285 81.8277 27.5175C81.8277 24.75 79.5777 22.5 76.8102 22.5ZM104.782 18V22.5H109.282L116.482 36H105.682L100.394 26.1H95.7817V36H85.8817V26.1V18V8.1V0H95.7817H104.782V7.965H110.564C113.332 7.965 115.582 10.215 115.582 12.9825C115.582 15.75 113.332 18 110.564 18H104.782ZM95.7817 18H104.782V8.1H95.7817V18ZM22.4558 8.09997H23.6483C28.5083 8.09997 32.4458 12.0375 32.4458 16.92V19.1025C32.4458 23.9625 28.5083 27.9 23.6483 27.9H22.4558V8.09997Z"
          fill="white"/>
</svg>
