<svg width="30" height="30" viewBox="0 0 30 30" fill="none" xmlns="http://www.w3.org/2000/svg">
    <circle cx="15" cy="15" r="15" fill="#4353FF"/>
    <path d="M18.9126 13.2705L17.5984 17.4467C17.5984 17.1269 16.692 10.2 16.692 10.2C14.6074 10.2 13.5017 11.6896 12.9216 13.2705L11.3174 17.4559C11.3174 17.1543 11.0908 13.3071 11.0908 13.3071C11.0134 12.4742 10.6358 11.6989 10.0295 11.128C9.42312 10.557 8.63016 10.2301 7.80078 10.2091L9.50471 20.7C11.6799 20.7 12.8582 19.2105 13.4654 17.6295L14.825 14.0655C14.825 14.2118 15.7313 20.7 15.7313 20.7C16.6208 20.6989 17.4868 20.4122 18.2038 19.8814C18.9208 19.3507 19.4516 18.6036 19.7192 17.7483L22.8008 10.2C20.6256 10.2 19.4836 11.6896 18.9035 13.2705H18.9126Z" fill="white"/>
</svg>
