<svg width="50" height="50" viewBox="0 0 50 50" fill="none" xmlns="http://www.w3.org/2000/svg">
    <path d="M25 50C11.2 50 0 38.8 0 25C0 11.2 11.2 0 25 0C38.8 0 50 11.2 50 25C50 38.8 38.8 50 25 50Z" fill="black"/>
    <path d="M20.8374 30.9873L20.884 30.6448L20.58 30.4802C18.393 29.2965 17 27.2824 17 25.0349C17 21.5062 20.4911 18.5 25 18.5C29.5089 18.5 33 21.5062 33 25.0349C33 28.5637 29.5089 31.5699 25 31.5699C24.179 31.5699 23.3874 31.4579 22.6241 31.264L22.4036 31.208L22.2165 31.3374C21.7581 31.6546 21.1928 31.9505 20.519 32.1818C20.7035 31.7528 20.7907 31.3313 20.8374 30.9873Z" stroke="white"/>
    <circle cx="21.75" cy="25.25" r="0.75" fill="white"/>
    <circle cx="24.75" cy="25.25" r="0.75" fill="white"/>
    <circle cx="27.75" cy="25.25" r="0.75" fill="white"/>
</svg>
