<svg width="50" height="50" viewBox="0 0 50 50" fill="none" xmlns="http://www.w3.org/2000/svg">
    <path d="M25 50C11.2 50 0 38.8 0 25C0 11.2 11.2 0 25 0C38.8 0 50 11.2 50 25C50 38.8 38.8 50 25 50Z" fill="black"/>
    <path d="M25 33.7289C31.348 33.7289 36.5 29.4301 36.5 24.1144C36.5 18.7988 31.348 14.5 25 14.5C18.652 14.5 13.5 18.7988 13.5 24.1144C13.5 27.4887 15.57 30.447 18.698 32.1573C18.583 33.0124 18.284 34.1449 17.341 35C19.135 34.6764 20.561 34.0293 21.619 33.2897C22.7 33.5671 23.827 33.7289 25 33.7289Z" fill="white"/>
    <path d="M14.0316 30.5331C20.7029 27.8212 23.2324 27.2848 23.8015 32.5C25.1294 26.7781 28.1015 27.6126 30.5993 30.1159C29.4926 27.0762 30.5993 25.8245 34.0772 25.6159C29.5559 24.1556 30.4096 21.8311 35.5 19.7748C29.9669 20.1027 29.461 18.3444 30.0934 14.5C27.975 17.5099 26.5522 20.3411 25.0029 17.4503C25.0662 20.8477 23.2324 19.8046 19.7228 16.6755C21.9044 21.0563 22.9478 21.3841 14 19.8642C22.7265 22.8742 25.4772 23.5 14.0316 30.5331Z" fill="black"/>
</svg>
