<svg width="85" height="48" viewBox="0 0 85 48" fill="none" xmlns="http://www.w3.org/2000/svg">
    <path d="M50.1354 45.1697C45.5351 42.679 39.0333 42.6041 34.3759 44.9863C31.1588 46.6318 27.5171 47.5597 23.6598 47.5597C10.5929 47.5597 0 36.913 0 23.7799C0 10.6464 10.5929 0 23.6598 0C27.7137 0 31.5294 1.02472 34.8646 2.83048C39.4649 5.32121 45.9667 5.39586 50.6238 3.01367C53.8412 1.3681 57.4829 0.440375 61.3401 0.440375C74.4072 0.440375 85 11.087 85 24.2201C85 37.3536 74.4072 48 61.3401 48C57.2863 48 53.4706 46.9754 50.1354 45.1697Z" fill="#FBA271"/>
    <path d="M14 24C14 28.4183 17.5817 32 22 32C26.4183 32 30 28.4183 30 24C30 19.5817 26.4183 16 22 16C17.5817 16 14 19.5817 14 24ZM67.0607 25.0607C67.6464 24.4749 67.6464 23.5251 67.0607 22.9393L57.5147 13.3934C56.9289 12.8076 55.9792 12.8076 55.3934 13.3934C54.8076 13.9792 54.8076 14.9289 55.3934 15.5147L63.8787 24L55.3934 32.4853C54.8076 33.0711 54.8076 34.0208 55.3934 34.6066C55.9792 35.1924 56.9289 35.1924 57.5147 34.6066L67.0607 25.0607ZM22 25.5L66 25.5L66 22.5L22 22.5L22 25.5Z" fill="black"/>
</svg>
