<svg width="50" height="50" viewBox="0 0 50 50" fill="none" xmlns="http://www.w3.org/2000/svg">
    <path d="M25 50C11.2 50 0 38.8 0 25C0 11.2 11.2 0 25 0C38.8 0 50 11.2 50 25C50 38.8 38.8 50 25 50Z" fill="black"/>
    <mask id="path-2-inside-1_874_2197" fill="white">
        <path fill-rule="evenodd" clip-rule="evenodd" d="M17 22.3394L25.2093 18L33.4186 22.3394L31.1307 23.5487L33.4186 24.7581L30.6731 26.2093L33.4186 27.6605L25.2093 31.9999L17 27.6605L19.7454 26.2093L17 24.7581L19.2878 23.5487L17 22.3394Z"/>
    </mask>
    <path d="M25.2093 18L25.6766 17.1159L25.2093 16.8689L24.742 17.1159L25.2093 18ZM17 22.3394L16.5327 21.4553L14.8602 22.3394L16.5327 23.2235L17 22.3394ZM33.4186 22.3394L33.8859 23.2235L35.5584 22.3394L33.8859 21.4553L33.4186 22.3394ZM31.1307 23.5487L30.6634 22.6646L28.9909 23.5487L30.6634 24.4328L31.1307 23.5487ZM33.4186 24.7581L33.8859 25.6422L35.5584 24.7581L33.8859 23.874L33.4186 24.7581ZM30.6731 26.2093L30.2058 25.3252L28.5333 26.2093L30.2058 27.0934L30.6731 26.2093ZM33.4186 27.6605L33.8859 28.5446L35.5584 27.6605L33.8859 26.7764L33.4186 27.6605ZM25.2093 31.9999L24.742 32.884L25.2093 33.131L25.6766 32.884L25.2093 31.9999ZM17 27.6605L16.5327 26.7764L14.8602 27.6605L16.5327 28.5446L17 27.6605ZM19.7454 26.2093L20.2127 27.0934L21.8853 26.2093L20.2127 25.3252L19.7454 26.2093ZM17 24.7581L16.5327 23.874L14.8602 24.7581L16.5327 25.6422L17 24.7581ZM19.2878 23.5487L19.7552 24.4328L21.4277 23.5487L19.7552 22.6646L19.2878 23.5487ZM24.742 17.1159L16.5327 21.4553L17.4673 23.2235L25.6766 18.8841L24.742 17.1159ZM33.8859 21.4553L25.6766 17.1159L24.742 18.8841L32.9512 23.2235L33.8859 21.4553ZM31.598 24.4328L33.8859 23.2235L32.9512 21.4553L30.6634 22.6646L31.598 24.4328ZM33.8859 23.874L31.598 22.6646L30.6634 24.4328L32.9512 25.6422L33.8859 23.874ZM31.1405 27.0934L33.8859 25.6422L32.9512 23.874L30.2058 25.3252L31.1405 27.0934ZM30.2058 27.0934L32.9512 28.5446L33.8859 26.7764L31.1405 25.3252L30.2058 27.0934ZM32.9512 26.7764L24.742 31.1158L25.6766 32.884L33.8859 28.5446L32.9512 26.7764ZM25.6766 31.1158L17.4673 26.7764L16.5327 28.5446L24.742 32.884L25.6766 31.1158ZM17.4673 28.5446L20.2127 27.0934L19.2781 25.3252L16.5327 26.7764L17.4673 28.5446ZM16.5327 25.6422L19.2781 27.0934L20.2127 25.3252L17.4673 23.874L16.5327 25.6422ZM18.8205 22.6646L16.5327 23.874L17.4673 25.6422L19.7552 24.4328L18.8205 22.6646ZM16.5327 23.2235L18.8205 24.4328L19.7552 22.6646L17.4673 21.4553L16.5327 23.2235Z" fill="white" mask="url(#path-2-inside-1_874_2197)"/>
</svg>
