<svg width="48" height="48" viewBox="0 0 48 48" fill="none" xmlns="http://www.w3.org/2000/svg">
    <path d="M48 4C48 1.79086 46.2091 0 44 0H35.9999C33.7908 0 31.9999 1.79086 31.9999 4V12.0001C31.9999 14.2092 30.2091 16.0001 27.9999 16.0001H20.0001C17.7909 16.0001 16.0001 17.7909 16.0001 20.0001V27.9999C16.0001 30.2091 14.2092 31.9999 12.0001 31.9999H4C1.79086 31.9999 -6.85453e-07 33.7908 -6.85453e-07 35.9999V44C-6.85453e-07 46.2091 1.79086 48 4 48H44C46.2091 48 48 46.2091 48 44V4Z" fill="#EAFC82"/>
</svg>
