<svg width="69" height="76" viewBox="0 0 69 76" fill="none" xmlns="http://www.w3.org/2000/svg">
    <path d="M33.5793 0.817862C33.7088 -0.272621 35.2912 -0.272621 35.4207 0.817862L36.5062 9.96603C37.9078 21.7788 47.2212 31.0922 59.0339 32.4939L68.182 33.5793C69.2727 33.7088 69.2727 35.2912 68.182 35.4207L59.0339 36.5062C47.2212 37.9078 37.9078 47.2212 36.5062 59.0339L35.4207 68.182C35.2912 69.2727 33.7088 69.2727 33.5793 68.182L32.4939 59.0339C31.0922 47.2212 21.7788 37.9078 9.96603 36.5062L0.817862 35.4207C-0.272621 35.2912 -0.272621 33.7088 0.817862 33.5793L9.96603 32.4939C21.7788 31.0922 31.0922 21.7788 32.4939 9.96603L33.5793 0.817862Z" fill="#AFF79D"/>
    <path d="M45.3022 69.6322L45.936 70.996L47.2982 70.3586L51.3857 68.4461L52.7422 67.8114L52.1096 66.4539L47.7039 57H56H60.337L56.9267 54.3205L35.9267 37.8205L33.5 35.9138V39V66V70.6741L36.2199 66.8729L40.9485 60.2642L45.3022 69.6322Z" fill="black" stroke="#AFF79D" stroke-width="3"/>
</svg>
