<svg width="55" height="48" viewBox="0 0 55 48" fill="none" xmlns="http://www.w3.org/2000/svg">
    <path fill-rule="evenodd" clip-rule="evenodd" d="M0.532676 15.6309C-0.177558 15.2555 -0.177559 14.2382 0.532676 13.8628L26.539 0.115914C26.8314 -0.0386378 27.1813 -0.0386383 27.4737 0.115914L53.48 13.8628C54.1903 14.2382 54.1903 15.2555 53.48 15.6309L48.981 18.0091C48.2708 18.3845 48.2708 19.4018 48.981 19.7773L53.48 22.1554C54.1903 22.5308 54.1903 23.5482 53.48 23.9236L47.4122 27.131C46.702 27.5064 46.702 28.5238 47.4122 28.8992L53.48 32.1066C54.1903 32.482 54.1903 33.4993 53.48 33.8748L27.4737 47.6216C27.1813 47.7762 26.8314 47.7762 26.539 47.6216L0.532676 33.8748C-0.177559 33.4993 -0.177559 32.482 0.532676 32.1066L6.6005 28.8992C7.31073 28.5237 7.31073 27.5064 6.6005 27.131L0.532676 23.9236C-0.177559 23.5482 -0.17756 22.5308 0.532675 22.1554L5.03168 19.7773C5.74192 19.4018 5.74192 18.3845 5.03168 18.0091L0.532676 15.6309Z" fill="#EAFC82"/>
</svg>
